<?xml version="1.0" encoding="UTF-8"?>
<svg xmlns="http://www.w3.org/2000/svg" xmlns:xlink="http://www.w3.org/1999/xlink"
     width="800" height="770" viewBox="0 0 800 770" id="geovista-logo">
<defs>
</defs>
<g transform="translate(-100, -115)">
<path d="M466.82,163.28 c3.91,0.63,18.57,3.54,28.48,16.54 c3.66,4.81,5.56,9.53,6.57,12.74 c2.22,-2.98,6.31,-7.53,12.76,-10.28 c14.29,-6.09,33.61,-0.51,42,13.32 c4.63,7.64,4.62,15.63,4.22,19.98 c2.1,-2.7,5.77,-8.27,5.94,-15.66 c0.37,-15.75,-15.46,-25.27,-18.06,-26.77 c-20.1,-11.52,-43.22,1.98,-44.41,2.71 c-7.5,-14.72,-22.71,-23.98,-39.19,-23.87 c-16.65,0.11,-31.85,9.76,-39.08,24.79 c1.98,-1.89,18.41,-17.1,40.78,-13.5 Z" fill="rgb(246,232,206)" stroke="grey" stroke-width="4" />
<path d="M566.72,827.17 c-29.47,-16.34,-48.01,-43.78,-76.89,-60.28 c-34.25,-19.57,-73.12,-21.03,-106.27,-41.54 c-21.04,-13.02,-35.41,-30.4,-53.24,-46.71 c-28.32,-25.91,-58.17,-48.46,-80.0,-80.57 c-42.46,-62.44,-50.36,-137.04,-29.0,-209.19 c4.58,-15.45,12.39,-29.83,15.41,-45.72 c-17.93,6.81,-27.52,29.42,-33.75,46.52 c-29.64,81.36,-14.38,167.55,39.11,234.71 c20.01,25.12,45.2,44.34,68.03,66.48 c-36.17,-10.79,-65.58,-36.94,-89.3,-65.41 c-41.37,-49.67,-56.31,-117.58,-51.08,-181.28 c-4.61,4.63,-6.93,12.2,-8.78,18.33 c-9.57,31.8,-4.71,66.68,1.33,98.64 l-6.12,-13.53 c-16.98,-40.67,-18.95,-112.34,10.42,-147.53 c7.56,-9.06,23.19,-16.04,24.43,-27.68 c2.1,-19.62,-5.83,-32.98,13.47,-47.14 c7.2,-5.29,17.04,-7.59,23.75,-13.46 c10.47,-9.16,17.26,-25.28,29.75,-36.18 c2.22,-1.94,11.18,-7.18,11.7,-8.51 c0.75,-1.88,-1.04,-1.58,-2.06,-2.11 c-9.74,-5.1,-21.08,5.89,-27.7,12.23 c-0.53,-19.28,11.75,-43.59,34.3,-40.15 c4.09,0.62,8.53,3.77,12.87,3.92 c3.05,-0.92,0.98,-11.18,10.84,-12.62 c9.77,-1.43,11.19,5.02,18.55,7.98 c3.14,-6.45,4.29,-13.02,7.94,-19.76 c8.69,-16.04,26.97,-26.51,45.5,-23.13 c9.71,1.77,17.24,14.53,13.61,23.76 c-0.83,2.12,-3.17,4.03,-3.45,4.27 c-0.98,0.85,-4.55,3.86,-9.96,3.88 c-5.04,0.01,-8.48,-2.58,-9.47,-3.39 c2.78,10.8,6.87,14.13,10.09,15.18 c11.75,3.81,21.33,-19.78,47.59,-25.54 c3.16,-0.69,23.47,-5.15,31.14,5.6 c6,8.41,0.69,21.1,-0.24,23.27 c8.14,-6.99,12.87,-16.51,10.75,-24.72 c-3.43,-13.3,-22.96,-16.03,-28.81,-16.85 c-14.87,-2.08,-26.73,3.32,-31.76,6 c-14.01,-46.45,-76.59,-26.91,-90.49,9.51 c-10.9,-2.45,-20.83,-1.71,-27.13,8.44 c-28.3,-9,-49.31,10.85,-57.06,36.54 c-2.97,9.83,-3.64,27.15,-8.01,34.53 c-4.45,7.52,-22.38,13.66,-30.04,21.01 c-21.52,20.66,-9.3,44.59,-21.83,62.18 c-9.74,13.68,-17.82,16.64,-25.44,35.18 c-33.12,80.61,6.69,222.5,62.71,287.1 c21.63,24.95,38.98,27.93,67.52,39.88 c20.83,8.72,41.88,17.31,61.68,28.18 l-0.54,2.12 c-17.7,-3.74,-36.33,-1.49,-53.9,-5.65 c-14.17,-3.35,-26.73,-10.85,-40.19,-15.62 c20.48,25.3,46.98,45.51,75.48,61.16 c47.99,26.36,101.42,43.87,156.34,47.29 l-47.52,-33.81 c-12.24,-8.03,-26.04,-12.34,-39.32,-18.1 c-0.8,-0.35,-6.19,-2.06,-5.13,-3.38 c23.75,0.47,41.68,7.99,60.84,21.04 c26.99,18.38,39.83,30.74,75.28,33.19 c17.59,1.22,63.67,-3.63,78.43,-13 c1.31,-0.83,2.25,-0.97,1.84,-2.92 c-8.57,-4.5,-17.75,-7.89,-26.23,-12.6 M430.64,787.79 c-19.72,-9.0,-43.83,-13.6,-60.91,-26.29 c-15.05,-11.19,-23.95,-21.07,-42.24,-29 c-17.94,-7.78,-36.48,-8.11,-54.9,-15.29 c-44.48,-17.33,-77.4,-61.69,-96.47,-103.96 c25.52,30.58,58.14,67.42,96.48,81.63 c22.07,8.18,49.08,10.26,68.25,25.33 c7.01,5.51,12.53,13.06,19.78,18.5 c20.36,15.26,39.29,17.14,62.15,25.05 c35.1,12.15,66.89,37.24,89.36,66.41 c-28.83,-10.59,-53.63,-29.65,-81.5,-42.37 Z" fill="rgb(7,95,169)" stroke="rgb(246,232,206)" stroke-width="4" />
<path d="M733.81,716.44 c-16.77,-0.66,-28.81,-4.89,-46.17,0.53 c-5.72,1.79,-10.68,5.39,-16.02,7.38 c-28.39,10.58,-42.07,-11.16,-67.38,-8.89 c-5.16,0.46,-10.68,2.77,-16.04,3.09 c-20.76,1.23,-47.74,-20.58,-67.18,-29.66 c-22.41,-10.47,-46.31,-17.54,-68.09,-29.74 c-42.77,-23.96,-88.79,-72.15,-93.91,-123.02 l1.04,-10.08 c5.77,21.98,20.5,44.72,35.62,61.69 c38.86,43.6,85.75,66.23,139.56,85.87 c1.81,0.66,3.6,1.49,5.6,1.3 c-19.53,-19.55,-45.06,-32.11,-67.77,-47.6 c-74.34,-50.73,-120.66,-116.45,-93.33,-210.79 l14.89,-37.22 c-19.96,13.77,-33.7,37.36,-42.52,59.56 c-31.66,79.62,-13.98,165.66,53.18,220.07 c31.85,25.8,72.3,33.85,105.67,59.15 c13.79,10.45,32.23,31.61,49.57,33.37 c10.06,1.02,21.52,-1.08,31.61,0.29 c12.31,1.67,23.55,11.05,35.33,14.65 c14.67,4.47,29.58,3.09,44.69,2.08 c45.06,-3.02,77.8,-8.22,109.55,-42.51 c2.68,-2.9,18.95,-21.78,16.46,-24.47 c-20.15,9.44,-41.76,15.82,-64.37,14.93 Z" fill="rgb(11,17,77)" stroke="rgb(246,232,206)" stroke-width="4" />
<path d="M703.01,784.36 c-25.94,0.22,-54.35,6.95,-79.5,-2.3 c-10.03,-3.69,-18.46,-10.37,-29.27,-13.26 c-8.16,-2.19,-14.33,-1.46,-21.89,-2.56 c-29.24,-4.27,-53.2,-31.26,-79.33,-45.09 c-21.68,-11.48,-45.67,-17.5,-67.73,-27.97 c-52.07,-24.71,-106.83,-91.28,-125.84,-145.32 c-20.32,-57.77,-9.88,-110.23,4.63,-167.67 c0.18,-0.7,1.85,-3.98,-0.37,-2.5 c-41.59,64.99,-44.47,147.12,-11.03,216.28 c21.92,45.35,70.56,102.8,117.41,122.91 c29.35,12.6,63.14,14.08,90.26,30.96 c45.03,28.02,62.42,92.77,127.93,82.02 c28.73,-4.71,61.11,-25.49,82.71,-44.35 c-2.73,0.21,-5.28,-1.18,-7.98,-1.16 Z" fill="rgb(114,183,190)" stroke="rgb(246,232,206)" stroke-width="4" />
<path d="M348.72,262.38 c1.04,-1.19,0.81,-1.75,0.72,-3.23 c-20.76,2.23,-38.7,17.27,-52.13,32.4 c-53.82,60.64,-72.1,170.37,-49.17,247.01 c4.02,13.43,9.45,26.9,18.9,37.46 c-0.07,-5.25,-2.4,-10.55,-3.41,-15.73 c-18.88,-96.8,0.26,-216.26,72.5,-287.36 c3.3,-3.24,9.74,-7.29,12.6,-10.56 Z" fill="rgb(246,232,206)" stroke="grey" stroke-width="4" />
<path d="M700.15,586.99 c-1.31,0.23,-5.15,0.2,-5.1,1.78 c1.94,0.57,3.73,1.0,5.79,1.12 c41.37,2.53,121.67,-10.58,149.42,-44.21 c15.51,-18.8,22.21,-47.87,22.35,-71.75 c-6.59,5.82,-9.95,15.36,-14.85,22.88 c-36.76,56.41,-93.6,79.14,-157.61,90.16 Z" fill="rgb(11,17,77)" stroke="rgb(246,232,206)" stroke-width="4" />
<path d="M310.05,178.61 c3.14,0.0,5.68,-2.54,5.68,-5.68 s-2.54,-5.68,-5.68,-5.68 s-5.68,2.54,-5.68,5.68 s2.54,5.68,5.68,5.68 Z" fill="rgb(246,232,206)" stroke="grey" stroke-width="4" />
<path d="M349.18,174.35 c3.93,0.0,7.11,-3.18,7.11,-7.11 s-3.18,-7.11,-7.11,-7.11 s-7.11,3.18,-7.11,7.11 s3.18,7.11,7.11,7.11 Z" fill="rgb(114,183,190)" stroke="rgb(246,232,206)" stroke-width="4" />
<path d="M376.82,164.6 c2.47,0.0,4.47,-2.0,4.47,-4.47 s-2,-4.47,-4.47,-4.47 s-4.47,2.0,-4.47,4.47 s2.0,4.47,4.47,4.47 Z" fill="rgb(114,183,190)" stroke="rgb(246,232,206)" stroke-width="4" />
<circle cx="303.28" cy="198.86" r="4.47" transform="translate(95.05,495.79) rotate(-88.21)" fill="rgb(246,232,206)" stroke="grey" stroke-width="4" />
<path d="M566.8,171.42 c2.47,0.0,4.47,-2.0,4.47,-4.47 s-2,-4.47,-4.47,-4.47 s-4.47,2.0,-4.47,4.47 s2.0,4.47,4.47,4.47 Z" fill="rgb(246,232,206)" stroke="grey" stroke-width="4" />
<path d="M529.68,157.77 c2.32,-2.32,2.32,-6.09,0.0,-8.42 c-2.32,-2.32,-6.09,-2.32,-8.42,0.0 c-2.32,2.32,-2.32,6.09,0.0,8.42 c2.32,2.32,6.09,2.32,8.42,0.0 Z" fill="rgb(246,232,206)" stroke="grey" stroke-width="4" />
<path d="M557.14,151.98 c2.41,0.0,4.36,-1.95,4.36,-4.36 s-1.95,-4.36,-4.36,-4.36 s-4.36,1.95,-4.36,4.36 s1.95,4.36,4.36,4.36 Z" fill="rgb(246,232,206)" stroke="grey" stroke-width="4" />
<circle cx="411.96" cy="183.78" r="5.68" fill="rgb(7,95,169)" stroke="rgb(246,232,206)" stroke-width="4" />
<circle cx="333.94" cy="220.26" r="5.68" transform="translate(-41.67,82.61) rotate(-13.28)" fill="rgb(7,95,169)" stroke="rgb(246,232,206)" stroke-width="4" />
<path d="M567.47,615.87 c16.18,3.32,29.07,13.5,44.41,17.26 c26.5,6.51,50.25,-0.62,76.26,-2.86 c46.1,-3.97,96.04,10.31,139.47,-11.52 c21.72,-10.93,34.41,-35.88,34.37,-59.73 l-22.0,15.74 c-57.19,35.43,-158.14,35.41,-222.79,24.35 c-25.08,-4.29,-54.4,-12.34,-74.21,-28.39 c13.19,4.93,27.04,8.71,41.08,10.48 c99.11,12.55,260.81,-19.45,275.67,-139.83 c1.46,-11.75,1.54,-25.03,-1.45,-36.56 c-0.61,-2.31,-1.37,-6.3,-3.73,-7.44 c-5.13,71.05,-65.9,129.1,-132.92,144.61 c10.46,-7.34,22.18,-12.68,32.87,-19.76 c76.39,-50.59,98.92,-107.74,63.32,-195.0 c-37.27,-91.38,-128.23,-152.81,-225.14,-163.75 c5.92,6.57,15.13,18.66,19.87,36.15 c2.38,8.77,3.03,16.65,3.03,22.87 c10.94,9.79,16.02,25.75,7.35,39.5 c-3.54,5.62,-15.84,13.25,-16.73,15.25 c-1.45,3.26,2.97,11.22,-2.13,19.05 c-11.19,17.17,-39.64,10.14,-46.73,-7.43 c-0.24,-0.59,-0.42,-1.54,-0.19,-2.69 c1.56,-7.82,20.95,-5.33,23.87,-12.27 c3.0,-7.14,-10.8,-25.65,-28.99,-27.18 c-17.93,-1.51,-29.95,14.34,-30.86,15.57 c-7.61,-7.55,-22.69,-13.64,-32.39,-6.84 c-9.25,6.47,-1.83,20.47,-11.82,27.53 c-12.46,8.79,-21.31,-8.12,-33.38,-12.2 c-32.78,-11.08,-67.41,15.94,-87.26,39.37 c-50.11,59.17,-58.41,138.42,-44.1,212.69 c1.42,1.75,1.93,-0.14,2.11,-1.59 c8.63,-68.37,28.82,-134.5,81.87,-181.87 c27.69,-24.72,89.52,-50.47,123.3,-26.5 c2.62,1.86,9.51,10.63,10.34,10.93 c3.64,1.27,8.58,-1.01,12.53,-0.93 c20.89,0.45,38.47,17.53,32.84,39.19 c-1.12,4.29,-7.72,11.63,-7.73,14.54 c0.0,4.15,6.99,8.1,5.01,17.84 c-1.1,5.36,-7.71,11.05,-13.18,11.37 c-2.78,0.17,-5.77,-1.71,-8.19,-0.89 c-1.66,0.56,-3.98,6.28,-8.92,8.15 c-16.01,6.07,-33.76,-9.09,-31.08,-25.77 c2.12,-13.16,26.72,-2.51,19.85,-18.93 c-4.82,-11.53,-25.69,-20.93,-37.47,-22.07 c-68.7,-6.66,-97.5,70.13,-94.09,127.06 c3.92,65.56,47.53,115.82,96.87,154.08 c13.94,10.81,29.61,19.93,42.92,31.51 c9.73,8.46,29.48,32.95,40.9,35.67 c9.57,2.27,13.46,-3.8,21.55,-6.24 c26.53,-8.01,39.85,12.25,63.99,9.76 c8.3,-0.86,16.53,-4.66,25.61,-5.24 c14.64,-0.93,29.11,2.62,43.6,3.28 c34.09,1.58,67.32,-3.96,88.64,-32.67 c3.45,-4.65,21.97,-34.03,19.32,-37.56 c-27.65,18.12,-60.04,25.4,-93.07,23.45 c-9.95,-0.6,-19.88,-3.58,-29.75,-4.29 c-37.39,-2.71,-67.15,15.63,-105.4,6.5 c-20.96,-4.99,-39.27,-15.99,-58.9,-24.03 c-12.99,-5.31,-26.61,-8.92,-39.31,-14.92 c16.27,-0.14,35.04,-0.14,51.07,3.16 M520.59,586.19 c-28.86,-7.06,-61.76,-36.95,-78.44,-60.87 c-20.14,-28.87,-28.72,-64.07,-9.76,-96.03 c1.82,-0.27,1.14,2.54,1.04,3.69 c-0.18,2.13,-1.01,4.1,-1.1,6.35 c-2.51,62.48,43.27,113.06,91.49,146.27 c0.24,1.98,-2.17,0.84,-3.24,0.59" fill="rgb(246,232,206)" stroke="grey" stroke-width="4" />
<path d="M687.68,232.07 M660,300 c9.39,1.69,14.88,7.6,16.4,9.36 c8.32,-8.02,19.74,-11.16,29.32,-3.36 c-2.56,-0.7,-6.53,-1.4,-11.18,-0.6 c-11.03,1.89,-17.01,10.64,-18.23,12.52 c-2.16,-2.89,-8.68,-10.79,-20.14,-13.88 c-6.33,-1.71,-11.82,-1.31,-15.23,-0.76 c1.97,-1.13,9.37,-5.03,19.07,-3.28 Z" fill="black" stroke="none" transform="rotate(-20, 660, 300)" />
<circle cx="690" cy="460" r="50" transform="translate(-41.67,82.61) rotate(-13.28)" fill="rgb(194,75,49)" stroke="none" />
<circle cx="480" cy="400" r="7" fill="rgb(114,183,190)" stroke="none" />
<circle cx="470" cy="430" r="5" fill="rgb(114,183,190)" stroke="none" />
<circle cx="510" cy="425" r="9" fill="rgb(114,183,190)" stroke="none" />
<circle cx="500" cy="380" r="3" fill="rgb(114,183,190)" stroke="none" />
<path d="M150.234375,890.125 L344.429688,691.390625 L390.886719,728.539062 L610.167969,481.515625 L691.933594,576.238281 L719.8125,540.949219 L842.457031,685.820312 L964.179688,556.738281 L1100.765625,674.675781 L1148.148438,640.316406 L1349.78125,826.972656 L1149.078125,693.25 L1202.039062,813.972656 L972.539062,612.457031 L900.996094,691.390625 L992.984375,900.339844 L719.8125,599.453125 L694.722656,636.601562 L612.957031,533.523438 L477.300781,933.773438 L469.867188,791.6875 L353.71875,735.96875 L150.234375,890.125" fill="rgb(169,59,37)" stroke="none" fill-opacity="0.9" transform="translate(490, 340) scale(0.2)" />
</g>
</svg>