<?xml version="1.0" standalone="no"?>
<!DOCTYPE svg PUBLIC "-//W3C//DTD SVG 20010904//EN"
 "http://www.w3.org/TR/2001/REC-SVG-20010904/DTD/svg10.dtd">
<svg version="1.0" xmlns="http://www.w3.org/2000/svg"
 width="551.000000pt" height="123.000000pt" viewBox="0 0 551.000000 123.000000"
 preserveAspectRatio="xMidYMid meet">

<g transform="translate(0.000000,123.000000) scale(0.100000,-0.100000)"
fill="#80d050" stroke="none">
<path d="M107 1154 c-4 -4 -3 -12 2 -18 5 -7 6 -75 1 -166 -5 -85 -14 -252
-20 -370 -11 -203 -11 -513 0 -523 3 -3 175 -6 382 -8 300 -3 380 -1 390 9 10
10 14 71 18 235 3 159 6 200 10 145 8 -107 64 -221 130 -266 70 -48 97 -55
210 -55 85 0 115 4 153 21 96 42 198 168 183 226 -8 33 -62 61 -82 42 -6 -6
-11 -13 -9 -14 2 -2 -21 -28 -50 -58 -58 -58 -152 -104 -211 -104 -27 0 -40 8
-69 45 -20 24 -35 52 -33 62 5 28 76 67 178 97 52 15 110 35 129 44 19 9 45
15 57 14 13 -2 24 1 24 6 0 5 10 8 23 8 19 -1 22 4 19 29 -7 71 -36 130 -91
188 -59 62 -101 90 -123 82 -7 -3 -33 1 -57 8 -40 12 -52 11 -130 -11 -131
-36 -210 -106 -236 -208 -10 -39 -13 -9 -24 238 -7 156 -17 288 -22 293 -11
11 -741 20 -752 9z m399 -75 c32 -5 74 -17 93 -26 32 -14 69 -14 118 2 26 9
54 -28 53 -71 -1 -233 -5 -289 -23 -292 -22 -5 -77 44 -77 69 0 9 -8 27 -19
40 -10 13 -22 35 -26 49 -12 41 -76 101 -105 99 -14 -2 -35 1 -48 5 -38 13
-67 -1 -122 -59 -29 -30 -56 -52 -61 -50 -25 16 -43 -230 -25 -350 26 -171
123 -266 224 -220 136 62 142 67 142 124 0 27 -5 33 -40 47 -48 19 -57 43 -33
91 l18 37 118 2 c109 2 118 1 132 -19 20 -28 19 -45 -4 -90 -26 -52 -34 -100
-32 -189 3 -71 1 -79 -23 -103 -28 -27 -72 -33 -109 -13 -31 16 -106 16 -112
-1 -3 -7 -12 -10 -20 -7 -8 3 -15 1 -15 -4 0 -15 -71 -33 -111 -27 -21 3 -52
16 -69 30 -16 14 -38 28 -48 31 -10 3 -26 21 -37 38 -10 18 -28 45 -41 60 -12
15 -36 71 -54 125 -36 114 -41 213 -15 340 43 211 80 264 230 320 71 26 66 26
141 12z m829 -409 c39 -37 33 -64 -20 -90 -78 -38 -226 -64 -238 -42 -3 4 -8
21 -12 39 -5 26 -2 36 15 50 12 10 27 23 34 28 25 22 64 43 87 47 45 6 109 -9
134 -32z"/>
<path d="M3295 1136 c-37 -16 -82 -68 -91 -103 -4 -14 -1 -36 7 -50 16 -31
120 -83 163 -83 46 0 115 38 122 67 8 31 -12 102 -31 109 -8 3 -23 21 -34 40
-18 30 -25 34 -63 34 -24 -1 -57 -7 -73 -14z"/>
<path d="M2885 1099 c-44 -4 -192 -8 -330 -8 l-250 0 -8 -163 c-14 -278 4
-822 28 -846 3 -4 141 -8 306 -10 324 -3 376 2 383 41 3 12 7 139 11 282 3
143 9 307 13 365 4 58 5 159 2 225 l-5 120 -35 1 c-19 1 -71 -2 -115 -7z
m-300 -95 c35 -38 31 -55 -20 -86 -52 -31 -56 -51 -26 -119 11 -24 23 -69 26
-99 7 -54 47 -173 68 -198 6 -7 19 -17 29 -23 28 -15 54 37 62 124 10 105 15
137 27 184 13 48 -2 107 -29 122 -13 7 -16 20 -14 55 5 59 20 67 114 62 40 -2
84 -4 98 -5 30 -1 80 -42 80 -64 0 -9 -8 -21 -19 -26 -10 -6 -35 -25 -55 -42
-31 -28 -36 -39 -36 -76 0 -24 -9 -61 -19 -81 -11 -21 -25 -67 -31 -103 -15
-85 -47 -232 -76 -346 -33 -133 -67 -172 -139 -159 -31 6 -40 14 -56 49 -10
23 -19 54 -19 70 0 15 -9 44 -20 64 -11 21 -20 52 -20 70 0 18 -9 61 -19 95
-31 100 -73 289 -67 303 2 7 -12 47 -33 89 -26 51 -37 85 -35 106 6 52 20 59
117 60 83 0 89 -2 112 -26z"/>
<path d="M4350 1021 c-31 -8 -51 -47 -44 -84 2 -16 -4 -47 -15 -73 -17 -38
-24 -44 -50 -44 -19 0 -35 -8 -45 -21 -19 -28 -6 -62 48 -120 l39 -41 8 -147
c5 -80 8 -158 9 -172 0 -14 17 -53 38 -85 33 -50 50 -66 108 -96 50 -26 74
-33 89 -28 11 5 31 9 44 9 31 1 170 106 182 138 5 13 9 58 9 99 0 61 -4 78
-20 94 -11 11 -25 20 -31 20 -16 0 -76 -66 -99 -109 -11 -20 -31 -49 -44 -65
-23 -27 -27 -29 -68 -20 -37 8 -46 15 -63 49 -35 70 -19 293 25 355 l20 28 49
-15 c53 -17 79 -14 129 17 28 17 33 25 30 53 -4 41 -42 61 -125 64 -101 3
-128 32 -124 130 2 43 -1 53 -18 62 -22 12 -43 13 -81 2z"/>
<path d="M3186 881 c-83 -12 -108 -69 -66 -152 l21 -40 58 3 c36 1 65 -3 74
-10 28 -23 38 -160 20 -272 -7 -50 -11 -56 -48 -77 -22 -12 -51 -23 -65 -23
-35 0 -102 -41 -117 -70 -26 -50 -17 -78 35 -111 45 -29 50 -30 127 -24 44 3
100 5 125 5 94 -2 107 -1 165 12 65 16 85 37 85 91 0 32 -25 87 -40 87 -6 0
-10 11 -10 25 0 18 -7 28 -25 35 -18 7 -25 17 -26 37 -1 16 -3 42 -4 58 -12
110 -16 158 -19 216 -3 64 -20 133 -37 155 -5 6 -35 17 -66 24 -32 7 -70 19
-85 26 -15 8 -33 13 -40 13 -7 -1 -35 -5 -62 -8z"/>
<path d="M5078 864 c-2 -1 -19 -6 -38 -9 -19 -3 -68 -24 -108 -47 -56 -31 -81
-52 -103 -86 -16 -25 -29 -52 -29 -59 0 -53 82 -112 135 -99 16 4 23 11 19 18
-4 7 -3 8 5 4 16 -10 40 17 47 53 8 37 28 56 81 75 40 14 44 13 92 -11 28 -15
53 -35 57 -45 8 -25 -13 -48 -42 -48 -12 0 -35 -5 -51 -11 -15 -6 -56 -15 -90
-20 -35 -5 -73 -17 -85 -26 -61 -49 -123 -112 -145 -146 -23 -36 -23 -40 -11
-100 10 -50 21 -72 57 -113 41 -47 50 -52 100 -59 123 -17 253 -5 289 28 l22
21 45 -22 c25 -12 57 -22 70 -22 31 0 31 1 9 204 -9 83 -14 184 -11 224 10
137 -27 200 -156 265 -44 23 -148 43 -159 31z m148 -406 c25 -12 44 -48 44
-82 0 -48 -101 -106 -193 -110 -44 -2 -44 -2 -81 48 l-29 38 23 42 c33 59 32
59 112 71 74 12 87 11 124 -7z"/>
<path d="M3874 847 c-9 -5 -45 -13 -80 -17 -106 -13 -165 -73 -165 -168 -1
-89 18 -120 104 -178 70 -47 82 -51 121 -47 32 4 61 -2 112 -22 84 -33 110
-55 96 -81 -30 -56 -94 -83 -165 -70 -38 7 -119 73 -139 113 -14 27 -88 59
-113 49 -8 -3 -21 -18 -29 -34 -12 -23 -13 -41 -4 -106 10 -72 14 -80 42 -97
17 -10 47 -19 67 -19 20 0 62 -12 94 -26 53 -25 63 -26 151 -19 139 10 186 40
243 153 28 56 21 140 -15 189 -51 68 -147 116 -238 118 -80 2 -136 25 -136 58
0 30 29 57 60 57 13 0 31 7 41 16 28 26 61 10 118 -56 40 -46 59 -60 79 -60
48 0 56 13 60 92 3 66 2 75 -20 95 -35 33 -251 79 -284 60z"/>
<path d="M1875 840 c-94 -11 -144 -35 -198 -96 -53 -59 -71 -100 -87 -205 -11
-67 -10 -79 5 -108 12 -25 15 -45 10 -81 -8 -59 2 -81 52 -111 21 -13 49 -34
62 -48 29 -28 118 -71 152 -72 60 -2 194 22 226 41 19 11 41 20 49 20 7 0 23
20 35 45 12 25 32 54 45 64 32 25 47 108 42 227 -4 88 -5 92 -50 160 -51 78
-112 132 -176 157 -45 18 -58 19 -167 7z m109 -176 c26 -9 66 -34 88 -55 38
-36 40 -41 36 -86 -6 -63 -29 -110 -83 -167 -39 -42 -50 -48 -106 -57 -60 -10
-63 -9 -89 16 -23 22 -29 38 -34 94 -12 116 21 214 83 250 44 25 45 25 105 5z"/>
</g>
</svg>
