<?xml version="1.0" encoding="UTF-8" standalone="no"?>
<svg
   height="24"
   viewBox="0 -960 960 960"
   width="24"
   version="1.1"
   id="svg1"
   xmlns="http://www.w3.org/2000/svg"
   xmlns:svg="http://www.w3.org/2000/svg">
  <defs
     id="defs1" />
  <path
     d="m 720,-600 -32,28 q -14,13 -33,13 -19,0 -33,-11 -14,-11 -19,-28 -5,-17 1,-36 l 16,-50 -34,-20 q -16,-9 -22.5,-26 -6.5,-17 -1.5,-34 5,-17 20,-26.5 15,-9.5 34,-9.5 h 40 l 12,-38 q 6,-19 20.5,-30.5 14.5,-11.5 31.5,-11.5 17,0 31.5,11.5 14.5,11.5 20.5,30.5 l 12,38 h 40 q 19,0 33.5,9.5 14.5,9.5 20.5,26.5 7,18 0,35 -7,17 -22,25 l -36,20 16,50 q 6,19 1,36.5 -5,17.5 -19,27.5 -15,11 -33.5,11 -18.5,0 -32.5,-13 z m 0,-80 q 17,0 28.5,-11.5 Q 760,-703 760,-720 760,-737 748.5,-748.5 737,-760 720,-760 q -17,0 -28.5,11.5 -11.5,11.5 -11.5,28.5 0,17 11.5,28.5 11.5,11.5 28.5,11.5 z m -168,436 q 23,60 -15,112 -38,52 -107,52 -33,0 -62.5,-17 Q 338,-114 324,-142 241,-130 186.5,-184.5 132,-239 142,-324 112,-341 96,-370.5 80,-400 80,-438 80,-499 135.5,-536.5 191,-574 244,-552 l 62,26 q 20,-31 53,-50.5 33,-19.5 71,-21.5 v -82 h 60 v 90 q 37,11 61,34.5 24,23.5 41,65.5 h 88 v 60 h -82 q -2,38 -20.5,71 -18.5,33 -49.5,53 z m -248,24 q 0,-27 4.5,-52.5 4.5,-25.5 13.5,-49.5 -23,11 -49.5,15.5 -26.5,4.5 -52.5,2.5 0,39 22.5,61.5 22.5,22.5 61.5,22.5 z m -74,-164 q 32,0 56.5,-8 24.5,-8 63.5,-32 l -120,-50 q -29,-12 -49.5,0.5 -20.5,12.5 -20.5,39.5 0,26 17,38 17,12 53,12 z m 200,224 q 25,0 40.5,-17.5 Q 486,-195 478,-214 l -54,-136 q -19,32 -29.5,64 -10.5,32 -10.5,58 0,33 11.5,50.5 11.5,17.5 34.5,17.5 z m 66,-222 q 10,-10 16,-26.5 6,-16.5 6,-34.5 0,-32 -21,-54 -21,-22 -52,-22 -18,0 -34,6 -16,6 -27,17 l 78,36 z m -174,60 z"
     id="path1"
     style="fill:#80d050;fill-opacity:1;stroke:none;stroke-opacity:1" />
</svg>
