<?xml version="1.0" encoding="UTF-8" standalone="no"?>
<svg
   viewBox="0 0 24 24"
   width="24"
   height="24"
   version="1.1"
   id="svg1"
   xmlns="http://www.w3.org/2000/svg"
   xmlns:svg="http://www.w3.org/2000/svg">
  <defs
     id="defs1" />
  <path
     d="m 4.75,3 h 14.5 C 20.216,3 21,3.784 21,4.75 v 14.5 A 1.75,1.75 0 0 1 19.25,21 H 4.75 A 1.75,1.75 0 0 1 3,19.25 V 4.75 C 3,3.784 3.784,3 4.75,3 Z m 14.5,1.5 H 4.75 A 0.25,0.25 0 0 0 4.5,4.75 v 14.5 c 0,0.138 0.112,0.25 0.25,0.25 h 0.19 l 9.823,-9.823 a 1.75,1.75 0 0 1 2.475,0 L 19.5,11.939 V 4.75 A 0.25,0.25 0 0 0 19.25,4.5 Z m 0.25,9.56 -3.323,-3.323 a 0.25,0.25 0 0 0 -0.354,0 L 7.061,19.5 H 19.25 A 0.25,0.25 0 0 0 19.5,19.25 Z M 8.5,11 a 2.5,2.5 0 1 1 0,-5 2.5,2.5 0 0 1 0,5 z m 0,-1.5 a 1,1 0 1 0 0,-2 1,1 0 0 0 0,2 z"
     id="path1"
     style="fill:#80d050;fill-opacity:1;stroke:none;stroke-opacity:1" />
</svg>
