<?xml version="1.0" encoding="UTF-8" standalone="no"?>
<svg
   height="24"
   viewBox="0 -960 960 960"
   width="24"
   version="1.1"
   id="svg1"
   xmlns="http://www.w3.org/2000/svg"
   xmlns:svg="http://www.w3.org/2000/svg">
  <defs
     id="defs1" />
  <path
     d="M 352,-120 H 200 q -33,0 -56.5,-23.5 Q 120,-167 120,-200 v -152 q 48,0 84,-30.5 36,-30.5 36,-77.5 0,-47 -36,-77.5 -36,-30.5 -84,-30.5 v -152 q 0,-33 23.5,-56.5 Q 167,-800 200,-800 h 160 q 0,-42 29,-71 29,-29 71,-29 42,0 71,29 29,29 29,71 h 160 q 33,0 56.5,23.5 23.5,23.5 23.5,56.5 v 160 q 42,0 71,29 29,29 29,71 0,42 -29,71 -29,29 -71,29 v 160 q 0,33 -23.5,56.5 Q 753,-120 720,-120 H 568 q 0,-50 -31.5,-85 -31.5,-35 -76.5,-35 -45,0 -76.5,35 -31.5,35 -31.5,85 z m -152,-80 h 85 q 24,-66 77,-93 53,-27 98,-27 45,0 98,27 53,27 77,93 h 85 v -240 h 80 q 8,0 14,-6 6,-6 6,-14 0,-8 -6,-14 -6,-6 -14,-6 H 720 V -720 H 480 v -80 q 0,-8 -6,-14 -6,-6 -14,-6 -8,0 -14,6 -6,6 -6,14 v 80 H 200 v 88 q 54,20 87,67 33,47 33,105 0,57 -33,104 -33,47 -87,68 z m 260,-260 z"
     id="path1"
     style="fill:#80d050;fill-opacity:1" />
</svg>
