<?xml version="1.0" encoding="UTF-8" standalone="no"?>
<svg
   height="24"
   viewBox="0 -960 960 960"
   width="24"
   version="1.1"
   id="svg1"
   xmlns="http://www.w3.org/2000/svg"
   xmlns:svg="http://www.w3.org/2000/svg">
  <defs
     id="defs1" />
  <path
     d="m 480,-60 q -72,-68 -165,-104 -93,-36 -195,-36 v -440 q 101,0 194,36.5 93,36.5 166,105.5 73,-69 166,-105.5 93,-36.5 194,-36.5 v 440 q -103,0 -195.5,36 Q 552,-128 480,-60 Z m 0,-104 q 63,-47 134,-75 71,-28 146,-37 v -276 q -73,13 -143.5,52.5 Q 546,-460 480,-394 414,-460 343.5,-499.5 273,-539 200,-552 v 276 q 75,9 146,37 71,28 134,75 z m 0,-436 q -66,0 -113,-47 -47,-47 -47,-113 0,-66 47,-113 47,-47 113,-47 66,0 113,47 47,47 47,113 0,66 -47,113 -47,47 -113,47 z m 0,-80 q 33,0 56.5,-23.5 Q 560,-727 560,-760 560,-793 536.5,-816.5 513,-840 480,-840 q -33,0 -56.5,23.5 -23.5,23.5 -23.5,56.5 0,33 23.5,56.5 23.5,23.5 56.5,23.5 z m 0,-80 z m 0,366 z"
     id="path1"
     style="fill:#80d050;fill-opacity:1" />
</svg>
