<?xml version="1.0" encoding="UTF-8" standalone="no"?>
<svg
   height="24"
   viewBox="0 -960 960 960"
   width="24"
   version="1.1"
   id="svg1"
   xmlns="http://www.w3.org/2000/svg"
   xmlns:svg="http://www.w3.org/2000/svg">
  <defs
     id="defs1" />
  <path
     d="M 480,-80 Q 319,-217 239.5,-334.5 160,-452 160,-552 q 0,-150 96.5,-239 96.5,-89 223.5,-89 127,0 223.5,89 96.5,89 96.5,239 l 84,-84 56,56 -180,180 -180,-180 56,-56 84,84 Q 720,-661 650.5,-730.5 581,-800 480,-800 379,-800 309.5,-730.5 240,-661 240,-552 q 0,71 59,162.5 59,91.5 181,203.5 20,-18 37,-35 l 34,-34 q -5,-10 -8,-21.5 -3,-11.5 -3,-23.5 0,-42 29,-71 29,-29 71,-29 42,0 71,29 29,29 29,71 0,42 -29,71 -29,29 -71,29 -8,0 -14.5,-1 -6.5,-1 -13.5,-3 -29,30 -61.5,61 -32.5,31 -70.5,63 z"
     id="path1"
     style="fill:#80d050;fill-opacity:1" />
</svg>
